# xmcd
#
# Track frame offsets:
#	150
#	13660
#	26060
#	37897
#	52444
#	68554
#	80935
#	93245
#	104219
#	117904
#	127904
#	139801
#	152988
#	164641
#	176966
#	190431
#	206761
#	220028
#	229988
#	241873
#	260320
#
# Disc length: 3714 seconds
#
# Revision: 0
# Processed by: cddbd v1.5.2PL0 Copyright (c) Steve Scherf et al.
# Submitted via: audiograbber 1.83.01
#
DISCID=3d0e8015
DTITLE=Various Artist - 101 Motown Anthems [CD 1 of 5)
DYEAR=2017
DGENRE=Funk/Soul
TTITLE0=Jackson 5 - I Want You Back
TTITLE1=The Supremes - You Can't Hurry Love
TTITLE2=Martha Reeves and The Vandellas - Dancing In The Street
TTITLE3=Marvin Gaye - I Heard It Through The Grapevine
TTITLE4=Diana Ross - Ain't No Mountain High Enough
TTITLE5=The Isley Brothers - This Old Heart Of Mine (Is Weak For You)
TTITLE6=Smokey Robinson and The Miracles - I Second That Emotion
TTITLE7=The Velvelettes - Needle In A Haystack
TTITLE8=Four Tops - Reach Out. I'll Be There
TTITLE9=Marvin Gaye and Tammi Terrell - Ain't Nothing Like The Real Thing
TTITLE10=Stevie Wonder - Signed, Sealed, Delivered (I'm Yours)
TTITLE11=The Temptations - My Girl
TTITLE12=The Supremes - Baby Love
TTITLE13=The Isley Brothers - Behind A Painted Smile
TTITLE14=Smokey Robinson and The Miracles - The Tears Of A Clown
TTITLE15=Thelma Houston - Don't Leave Me This Way
TTITLE16=Marvin Gaye and Kim Weston - It Takes Two
TTITLE17=Gloria Jones - Tainted Love
TTITLE18=Four Tops - Standing In The Shadows Of Love
TTITLE19=Diana Ross - Upside Down
TTITLE20=Smokey Robinson - Being With You
EXTD=
EXTT0=
EXTT1=
EXTT2=
EXTT3=
EXTT4=
EXTT5=
EXTT6=
EXTT7=
EXTT8=
EXTT9=
EXTT10=
EXTT11=
EXTT12=
EXTT13=
EXTT14=
EXTT15=
EXTT16=
EXTT17=
EXTT18=
EXTT19=
EXTT20=
PLAYORDER=
